<svg xmlns="http://www.w3.org/2000/svg" viewBox="0 0 155.43 54.53"><defs><style>.cls-1{opacity:0.75;}.cls-2{fill:#0a0808;}.cls-3{fill:#ee4266;}</style></defs><title>Tierra Logo Black</title><g id="Layer_2" data-name="Layer 2"><g id="Layer_1-2" data-name="Layer 1"><g class="cls-1"><line class="cls-2" x1="9.41" y1="33.18" x2="150.75" y2="33.18"/><polygon class="cls-2" points="9.41 33.19 27.07 33 44.74 32.9 80.08 32.81 115.42 32.9 133.09 33 150.75 33.19 133.09 33.37 115.42 33.47 80.08 33.56 44.74 33.47 27.07 33.37 9.41 33.19"/></g><path class="cls-3" d="M18,52.94l.6-1a7.81,7.81,0,0,0,4.75,1.49c2.69,0,3.86-1,3.86-2.17,0-3.35-8.86-1.29-8.86-5.82,0-1.8,1.65-3.35,5.31-3.35a9.22,9.22,0,0,1,4.46,1.08l-.52,1a8.37,8.37,0,0,0-3.94-1c-2.63,0-3.81,1-3.81,2.22,0,3.35,8.86,1.33,8.86,5.78,0,1.8-1.68,3.34-5.36,3.34A8.71,8.71,0,0,1,18,52.94Z"/><path class="cls-3" d="M39.08,48.67l-2.94,2.54v3.21H34.62V42.19h1.52v7.39l8.44-7.39h1.75L40.1,47.73l6.66,6.69H45Z"/><path class="cls-3" d="M51.82,42.19h1.52V54.42H51.82Z"/><path class="cls-3" d="M72.65,42.19V54.42H71.39L62.14,44.5v9.92H60.62V42.19h1.26l9.27,9.93V42.19Z"/><path class="cls-3" d="M78.65,48.31c0-3.58,3.21-6.22,7.54-6.22a7.66,7.66,0,0,1,5.27,1.78l-1,.82a6.27,6.27,0,0,0-4.25-1.45c-3.48,0-6.09,2.17-6.09,5.07s2.61,5.06,6.09,5.06a6.18,6.18,0,0,0,4.25-1.46l1,.82a7.69,7.69,0,0,1-5.29,1.8C81.86,54.53,78.65,51.89,78.65,48.31Z"/><path class="cls-3" d="M106,51.16h-8l-1.72,3.26H94.63l6.57-12.23h1.5l6.58,12.23h-1.6Zm-.55-1-3.46-6.57-3.45,6.57Z"/><path class="cls-3" d="M124.08,54.42l-3.29-3.93a10.59,10.59,0,0,1-1.15,0h-3.86v3.88h-1.52V42.19h5.38c3.66,0,5.88,1.58,5.88,4.2,0,1.92-1.19,3.26-3.29,3.84l3.52,4.19Zm-.08-8c0-2-1.52-3.08-4.4-3.08h-3.82v6.13h3.82C122.48,49.44,124,48.31,124,46.39Z"/><path class="cls-3" d="M141.89,53.3v1.12H131.71V42.19h9.87v1.12h-8.35v4.35h7.44v1.1h-7.44V53.3Z"/><path d="M8.52,3.09H0V0H20.55V3.09H12V24.84H8.52Z"/><path d="M28.88,0h3.55V24.84H28.88Z"/><path d="M62.39,21.76v3.08h-18V0H61.89V3.09h-14v7.63H60.36v3H47.91v8Z"/><path d="M89.21,24.84l-5.36-7.63c-.49,0-1,.07-1.56.07H76.15v7.56H72.6V0h9.69c6.46,0,10.37,3.27,10.37,8.66a7.84,7.84,0,0,1-5.47,7.84l5.89,8.34Zm-.1-16.18c0-3.55-2.38-5.57-6.92-5.57h-6V14.27h6C86.73,14.27,89.11,12.21,89.11,8.66Z"/><path d="M119.48,24.84l-5.36-7.63c-.49,0-1,.07-1.56.07h-6.14v7.56h-3.55V0h9.69c6.46,0,10.36,3.27,10.36,8.66a7.83,7.83,0,0,1-5.46,7.84l5.89,8.34Zm-.11-16.18c0-3.55-2.37-5.57-6.92-5.57h-6V14.27h6C117,14.27,119.37,12.21,119.37,8.66Z"/><path d="M149,18.63h-13.2L133,24.84h-3.65L140.63,0h3.51l11.29,24.84H151.7Zm-1.24-2.84L142.37,3.62,137,15.79Z"/></g></g></svg>