<svg width="36" height="36" viewBox="0 0 36 36" fill="none" xmlns="http://www.w3.org/2000/svg">
<path d="M32.4001 31.119L30.3388 7.90675C30.2946 7.39141 29.8603 7.00123 29.3523 7.00123H25.1118C25.0529 3.12883 21.8873 0 18.0001 0C14.113 0 10.9474 3.12883 10.8885 7.00123H6.64799C6.13265 7.00123 5.70566 7.39141 5.66149 7.90675L3.60014 31.119C3.60014 31.1485 3.59277 31.1779 3.59277 31.2074C3.59277 33.8503 6.01486 36 8.99645 36H27.0038C29.9854 36 32.4075 33.8503 32.4075 31.2074C32.4075 31.1779 32.4075 31.1485 32.4001 31.119ZM18.0001 1.98773C20.7903 1.98773 23.0652 4.22577 23.1241 7.00123H12.8762C12.9351 4.22577 15.21 1.98773 18.0001 1.98773ZM27.0038 34.0123H8.99645C7.12652 34.0123 5.60995 32.7755 5.5805 31.2515L7.55351 8.99632H10.8811V12.0147C10.8811 12.5669 11.3228 13.0086 11.875 13.0086C12.4271 13.0086 12.8688 12.5669 12.8688 12.0147V8.99632H23.1241V12.0147C23.1241 12.5669 23.5658 13.0086 24.1179 13.0086C24.6701 13.0086 25.1118 12.5669 25.1118 12.0147V8.99632H28.4394L30.4198 31.2515C30.3903 32.7755 28.8664 34.0123 27.0038 34.0123Z" fill="white"/>
</svg>
