<svg width="156" height="156" viewBox="0 0 156 156" fill="none" xmlns="http://www.w3.org/2000/svg">
<g clip-path="url(#clip0)">
<path d="M154.42 33.7389L93.6632 0.376778C92.7503 -0.124291 91.6435 -0.124291 90.7306 0.376778L67.8302 12.9511C67.347 13.0784 66.8959 13.3212 66.5222 13.67L29.9752 33.7389C29.0004 34.2733 28.3946 35.2968 28.3946 36.4097V76.7594C22.2294 78.6875 16.5796 82.0878 11.882 86.7867C-0.362664 99.0301 -3.48452 117.704 4.11363 133.254C4.85154 134.765 6.6761 135.393 8.18763 134.654C9.70036 133.914 10.3264 132.09 9.58848 130.578C3.13291 117.366 5.78584 101.5 16.1904 91.0951C22.6972 84.5884 31.3475 81.0047 40.5488 81.0047C49.7501 81.0047 58.4004 84.5884 64.9071 91.0951C71.4127 97.6007 74.9963 106.251 74.9963 115.452C74.9963 124.654 71.4127 133.304 64.9059 139.811C54.5013 150.215 38.635 152.868 25.4227 146.413C23.9112 145.674 22.0866 146.301 21.3487 147.812C20.6096 149.325 21.2356 151.15 22.7484 151.887C28.4125 154.656 34.4895 156.001 40.5226 156.001C51.0474 156 61.4318 151.903 69.2156 144.119C72.785 140.55 75.6057 136.432 77.6016 131.955L90.7306 139.164C91.1876 139.416 91.6923 139.54 92.1969 139.54C92.7015 139.54 93.2074 139.416 93.6632 139.164L154.42 105.803C155.395 105.268 156 104.244 156 103.133V81.9581C156 80.2752 154.636 78.9112 152.953 78.9112C151.271 78.9112 149.907 80.2752 149.907 81.9581V101.33L95.2533 131.34V71.569L113.291 61.6642V77.3652C113.291 78.4435 113.859 79.4408 114.787 79.9883C115.265 80.2704 115.801 80.412 116.337 80.412C116.842 80.412 117.348 80.2871 117.806 80.0347L130.826 72.8686C131.799 72.3331 132.403 71.3107 132.403 70.2002V51.1692L149.907 41.5584V57.5843C149.907 59.2672 151.271 60.6311 152.953 60.6311C154.636 60.6311 156 59.2672 156 57.5843V36.4097C156 35.298 155.395 34.2733 154.42 33.7389ZM92.1969 6.5229L146.623 36.4097L129.454 45.8371L75.0285 15.9504L92.1969 6.5229ZM92.1969 66.2952L37.7709 36.4097L55.5689 26.6359L109.996 56.5214L92.1969 66.2952ZM116.326 53.0461L61.8995 23.1605L68.6979 19.4269L123.125 49.3125L116.326 53.0461ZM69.2156 86.7867C61.5579 79.129 51.3771 74.9122 40.5488 74.9122C38.5005 74.9122 36.4772 75.0633 34.4884 75.3597V41.5584L89.1607 71.5797V131.351L79.6714 126.14C80.6057 122.701 81.0889 119.113 81.0889 115.452C81.0889 104.624 76.8721 94.4431 69.2156 86.7867ZM126.31 68.3995L119.384 72.2117V58.3186L126.31 54.516V68.3995Z" fill="#EE4266"/>
<path d="M152.953 66.7087C152.152 66.7087 151.365 67.0349 150.799 67.6014C150.232 68.1679 149.906 68.9534 149.906 69.7556C149.906 70.5566 150.232 71.3421 150.799 71.9087C151.365 72.4764 152.152 72.8013 152.953 72.8013C153.754 72.8013 154.541 72.4764 155.107 71.9087C155.674 71.3421 156 70.5566 156 69.7556C156 68.9534 155.674 68.1679 155.107 67.6014C154.541 67.0349 153.754 66.7087 152.953 66.7087Z" fill="#EE4266"/>
<path d="M30.3033 118.498C31.0829 118.498 31.8636 118.201 32.4575 117.607C33.6477 116.417 33.6477 114.487 32.4575 113.297L30.3473 111.186H48.3549C52.7228 111.186 56.2767 114.74 56.2767 119.108C56.2767 123.476 52.7228 127.03 48.3549 127.03H37.6848C36.0019 127.03 34.638 128.394 34.638 130.077C34.638 131.758 36.0019 133.122 37.6848 133.122H48.3549C56.0827 133.122 62.3705 126.836 62.3705 119.108C62.3705 111.38 56.0827 105.093 48.3549 105.093H30.3473L32.4575 102.982C33.6477 101.792 33.6477 99.8625 32.4575 98.6723C31.2685 97.4833 29.3393 97.4833 28.1491 98.6723L20.8366 105.985C19.6476 107.175 19.6476 109.104 20.8366 110.294L28.1491 117.606C28.7442 118.201 29.5237 118.498 30.3033 118.498Z" fill="#EE4266"/>
<path d="M14.0385 145.016C13.1721 145.016 12.3116 144.647 11.7105 143.931L11.7046 143.924C10.6215 142.637 10.7881 140.716 12.0759 139.633C13.3637 138.548 15.2858 138.715 16.3689 140.003C17.4508 141.292 17.2877 143.216 15.9999 144.299C15.4275 144.78 14.7312 145.016 14.0385 145.016Z" fill="#EE4266"/>
</g>
<defs>
<clipPath id="clip0">
<rect width="156" height="156" fill="white"/>
</clipPath>
</defs>
</svg>
