<svg width="131" height="131" viewBox="0 0 131 131" fill="none" xmlns="http://www.w3.org/2000/svg">
<g clip-path="url(#clip0)">
<path d="M125.814 28.9046L66.3345 0.190499C65.8071 -0.0638252 65.1931 -0.0638252 64.666 0.190499L5.18664 28.9046C4.52345 29.2247 4.10205 29.8963 4.10205 30.6327V100.367C4.10205 101.103 4.52345 101.775 5.18664 102.095L64.6658 130.809C64.9293 130.936 65.2148 131 65.5001 131C65.7854 131 66.0707 130.936 66.3345 130.809L125.814 102.095C126.477 101.775 126.898 101.103 126.898 100.367V30.6329C126.898 29.896 126.477 29.2249 125.814 28.9046ZM65.5001 4.04963L120.565 30.6327L104.603 38.3386C104.502 38.2616 104.395 38.1905 104.278 38.1339L49.5869 11.7318L65.5001 4.04963ZM45.2532 13.9015L100.238 40.4459L88.9767 45.8826L34.0143 19.349L45.2532 13.9015ZM101.525 44.0863V64.183L91.0057 69.2613V49.1645L101.525 44.0863ZM123.06 99.1628L67.4191 126.023V60.5511L80.6912 54.1438C81.6456 53.683 82.0458 52.536 81.585 51.5814C81.1242 50.6273 79.9771 50.2266 79.0225 50.6877L65.5001 57.2159L60.1793 54.6471C59.2247 54.1858 58.0776 54.5865 57.6168 55.5408C57.156 56.4952 57.5562 57.6425 58.5105 58.1033L63.5812 60.5511V126.023L7.93994 99.1623V33.6899L50.3103 54.1446C50.5792 54.2746 50.8634 54.336 51.1431 54.336C51.8564 54.336 52.5416 53.9363 52.8724 53.2509C53.3332 52.2965 52.9331 51.1492 51.9787 50.6884L10.4348 30.6327L29.4976 21.4299L87.1412 49.2579C87.1497 49.2697 87.1591 49.2802 87.1678 49.2917V72.3188C87.1678 72.9792 87.5073 73.593 88.0667 73.9443C88.3773 74.1392 88.7316 74.2377 89.087 74.2377C89.3715 74.2377 89.6568 74.1745 89.9211 74.0469L104.278 67.1159C104.941 66.7958 105.363 66.1244 105.363 65.3878V42.2338L123.06 33.6902V99.1628Z" fill="#EE4266"/>
<path d="M23.7759 91.7202L15.0472 87.5065C14.0923 87.0452 12.9456 87.4458 12.4848 88.4002C12.024 89.3545 12.4241 90.5018 13.3785 90.9626L22.1071 95.1764C22.376 95.3063 22.6603 95.3678 22.94 95.3678C23.6533 95.3678 24.3385 94.9681 24.6693 94.2827C25.1304 93.328 24.7302 92.1813 23.7759 91.7202Z" fill="#EE4266"/>
<path d="M31.8091 86.4911L15.0593 78.4049C14.1046 77.9441 12.9576 78.3443 12.4968 79.2989C12.0363 80.2533 12.4364 81.4005 13.3908 81.8613L30.1406 89.9475C30.4095 90.0772 30.6938 90.1389 30.9734 90.1389C31.6868 90.1389 32.372 89.7393 32.7028 89.0538C33.1636 88.0989 32.7634 86.9517 31.8091 86.4911Z" fill="#EE4266"/>
</g>
<defs>
<clipPath id="clip0">
<rect width="131" height="131" fill="white"/>
</clipPath>
</defs>
</svg>
