<svg width="174" height="121" viewBox="0 0 174 121" fill="none" xmlns="http://www.w3.org/2000/svg">
<path d="M133.873 53.9772C133.873 21.7121 100.377 0.563232 66.9364 0.563232C33.362 0.563232 0 21.8115 0 53.9772C0 66.1462 5.24887 78.0461 14.7801 87.4853C15.1448 87.8465 15.2844 88.3949 15.1444 88.9159C12.1507 100.052 5.06026 110.111 2.15086 113.92C1.24586 115.104 1.09701 116.671 1.76276 118.009C2.41356 119.317 3.70021 120.118 5.13774 120.118C5.17037 120.118 5.20265 120.118 5.23528 120.117C19.4723 119.757 35.9747 115.676 46.1754 105.493C46.5319 105.137 47.0434 104.996 47.5443 105.118C53.8117 106.627 60.3364 107.392 66.9364 107.392C100.501 107.391 133.873 86.1516 133.873 53.9772ZM48.7205 100.08C46.5044 99.5459 44.2163 100.19 42.6017 101.802C32.4006 111.986 15.7432 114.301 7.85784 114.815C11.4598 109.767 17.3163 100.494 20.0623 90.2786C20.69 87.9439 20.0296 85.4538 18.3393 83.7795C9.67668 75.2006 5.09764 64.895 5.09764 53.9772C5.09764 27.3789 32.8383 5.73934 66.9364 5.73934C101.035 5.73934 128.775 27.3786 128.775 53.9772C128.775 80.5758 101.035 102.215 66.9364 102.215C60.7319 102.215 54.6035 101.497 48.7205 100.08Z" fill="#EE4266"/>
<path d="M150.267 96.9807C165.128 89.3549 174 76.3578 174 62.2132C174 42.2227 156.204 25.1416 131.684 21.5973C130.292 21.3965 129 22.3796 128.801 23.7947C128.603 25.2099 129.572 26.5201 130.966 26.7217C152.948 29.8991 168.903 44.8253 168.903 62.2132C168.903 74.3639 161.077 85.6344 147.968 92.3612C145.419 93.6694 144.053 96.5611 144.647 99.3942C145.89 105.324 148.535 110.815 150.652 114.537C135.6 111.994 129.895 104.66 128.091 101.486C126.977 99.5267 124.895 98.312 122.647 98.312C122.64 98.312 122.634 98.312 122.628 98.312L122.441 98.3124C119.614 98.3124 116.784 98.1133 114.03 97.7202C112.639 97.5218 111.347 98.5077 111.151 99.9232C110.955 101.339 111.927 102.647 113.321 102.846C116.309 103.272 119.378 103.488 122.441 103.488L122.648 103.488H122.652C123.078 103.488 123.47 103.712 123.675 104.073C130.579 116.221 146.447 119.322 152.95 120.092C154.386 120.261 155.754 119.595 156.52 118.349C157.285 117.106 157.275 115.567 156.495 114.332C154.536 111.235 151.041 105.036 149.633 98.3169C149.521 97.7799 149.781 97.2302 150.267 96.9807Z" fill="#EE4266"/>
<path d="M27.2749 44.7202C22.404 44.7202 18.4414 48.7441 18.4414 53.6897C18.4414 58.6353 22.404 62.6592 27.2749 62.6592C32.1459 62.6592 36.1085 58.6353 36.1085 53.6897C36.1085 48.7441 32.1459 44.7202 27.2749 44.7202ZM27.2749 57.4835C25.2148 57.4835 23.539 55.7816 23.539 53.6901C23.539 51.5986 25.2151 49.8967 27.2749 49.8967C29.3347 49.8967 31.0108 51.5986 31.0108 53.6901C31.0108 55.7816 29.3347 57.4835 27.2749 57.4835Z" fill="#EE4266"/>
<path d="M52.4761 44.7202C47.6051 44.7202 43.6426 48.7441 43.6426 53.6897C43.6426 58.6353 47.6051 62.6592 52.4761 62.6592C57.3471 62.6592 61.3096 58.6353 61.3096 53.6897C61.3096 48.7441 57.3471 44.7202 52.4761 44.7202ZM52.4761 57.4835C50.416 57.4835 48.7402 55.7816 48.7402 53.6901C48.7402 51.5986 50.4163 49.8967 52.4761 49.8967C54.5359 49.8967 56.212 51.5986 56.212 53.6901C56.212 55.7816 54.5362 57.4835 52.4761 57.4835Z" fill="#EE4266"/>
<path d="M77.6753 44.7202C72.8044 44.7202 68.8418 48.7441 68.8418 53.6897C68.8418 58.6353 72.8044 62.6592 77.6753 62.6592C82.5463 62.6592 86.5089 58.6353 86.5089 53.6897C86.5089 48.7441 82.5463 44.7202 77.6753 44.7202ZM77.6753 57.4835C75.6152 57.4835 73.9394 55.7816 73.9394 53.6901C73.9394 51.5986 75.6155 49.8967 77.6753 49.8967C79.7351 49.8967 81.4112 51.5986 81.4112 53.6901C81.4112 55.7816 79.7354 57.4835 77.6753 57.4835Z" fill="#EE4266"/>
<path d="M102.876 44.7202C98.0046 44.7202 94.042 48.7441 94.042 53.6897C94.042 58.6353 98.0046 62.6592 102.876 62.6592C107.746 62.6592 111.709 58.6353 111.709 53.6897C111.709 48.7441 107.746 44.7202 102.876 44.7202ZM102.876 57.4835C100.815 57.4835 99.1396 55.7816 99.1396 53.6901C99.1396 51.5986 100.816 49.8967 102.876 49.8967C104.935 49.8967 106.611 51.5986 106.611 53.6901C106.611 55.7816 104.935 57.4835 102.876 57.4835Z" fill="#EE4266"/>
</svg>
